#!OML:ASF X:\für Bonn\!DataBase\2005_08_10_Bjorn_Final\c3d\bjorn.ASF
:FULLY-SPECIFIED
:DEGREES
31
root 30.0322 17.6466 -2.85719 184.155 -9.20676 -179.401
lowerback 6.33494 1.99543 -1.29748
upperback 11.611 1.24309 -2.93668
thorax 8.74557 0.00202876 -2.4782
lowerneck -1.61238 6.56879 1.52219
upperneck -10.1846 8.09652 -5.26587
head -2.67517 3.96937 -2.07911
rclavicle 1.11319e-014 -1.59028e-015
rhumerus -39.5448 -3.36263 -95.6561
rradius 47.0377
rwrist -4.89377
rhand -22.2992 22.9219
rfingers 7.12502
rthumb 4.11989 -7.01805
lclavicle 1.11319e-014 -1.59028e-015
lhumerus -29.0841 -26.3365 89.7173
lradius 70.8247
lwrist 0.687315
lhand -31.9237 -20.4654
lfingers 7.12502
lthumb -5.17502 9.45138
rfemur -42.5577 -4.318 12.2132
rtibia 68.9511
rfoot -21.8604 17.0007
rtoes -23.3879
lfemur -2.0429 -2.52825 -27.4773
ltibia 42.834
lfoot -32.3814 1.16586
ltoes -14.5162
32
root 29.9768 17.6287 -2.98688 184.148 -9.56153 -179.207
lowerback 6.53404 1.81681 -1.16909
upperback 11.6347 0.98808 -2.85931
thorax 8.64933 -0.119258 -2.47128
lowerneck -2.00933 6.69364 1.30608
upperneck -10.2175 8.25191 -5.14505
head -2.62274 4.03909 -1.98775
rclavicle 0 -2.38542e-015
rhumerus -40.4131 -3.00572 -95.4263
rradius 47.0834
rwrist -4.93631
rhand -22.9981 22.9976
rfingers 7.12502
rthumb 3.44498 -6.95434
lclavicle 0 -2.38542e-015
lhumerus -28.3553 -26.4184 89.4105
lradius 73.0976
lwrist 1.32978
lhand -32.3308 -20.6289
lfingers 7.12502
lthumb -5.56808 9.27791
rfemur -43.945 -4.29891 12.2655
rtibia 68.9267
rfoot -21.7466 16.9327
rtoes -24.1783
lfemur -1.1437 -2.79346 -27.3949
ltibia 42.0535
lfoot -32.3346 1.4784
ltoes -15.6201
33
root 29.9197 17.6219 -3.12101 184.168 -9.91776 -178.989
lowerback 6.73883 1.61894 -1.05314
upperback 11.6374 0.711107 -2.74697
thorax 8.52409 -0.252259 -2.41803
lowerneck -2.44403 6.80693 1.1159
upperneck -10.219 8.3844 -5.13898
head -2.54893 4.09881 -1.93467
rclavicle -5.56597e-015 -3.73715e-014
rhumerus -41.4961 -2.60296 -95.1348
rradius 47.4088
rwrist -4.92916
rhand -23.5297 22.9479
rfingers 7.12502
rthumb 2.9316 -7.01175
lclavicle -5.56597e-015 -3.73715e-014
lhumerus -27.4302 -26.4702 89.0501
lradius 75.313
lwrist 1.67311
lhand -32.6442 -20.8242
lfingers 7.12502
lthumb -5.87072 9.07451
rfemur -45.3558 -4.28801 12.3292
rtibia 68.8429
rfoot -21.5708 16.8272
rtoes -24.7058
lfemur -0.214464 -3.04459 -27.272
ltibia 41.1774
lfoot -32.2408 1.70703
ltoes -16.4799
34
root 29.8606 17.6199 -3.25897 184.202 -10.2905 -178.75
lowerback 6.91711 1.40912 -0.893065
upperback 11.6229 0.425719 -2.63479
thorax 8.39586 -0.383682 -2.38755
lowerneck -2.86186 6.933 0.916766
upperneck -10.2005 8.54223 -5.08322
head -2.47396 4.17106 -1.86437
rclavicle 3.18055e-015 9.54166e-015
rhumerus -42.6031 -2.12595 -94.8116
rradius 47.8021
rwrist -4.88916
rhand -23.8568 22.7169
rfingers 7.12502
rthumb 2.61564 -7.24685
lclavicle 3.18055e-015 9.54166e-015
lhumerus -26.5457 -26.502 88.6147
lradius 77.6081
lwrist 1.59618
lhand -32.8361 -20.7933
lfingers 7.12502
lthumb -6.05596 9.10012
rfemur -46.7225 -4.27572 12.3795
rtibia 68.6992
rfoot -21.2797 16.7673
rtoes -24.669
lfemur 0.703259 -3.22594 -27.0927
ltibia 40.2496
lfoot -32.0651 1.89801
ltoes -17.5538
35
root 29.8045 17.6256 -3.4046 184.236 -10.7897 -178.487
lowerback 7.05147 1.16453 -0.732183
upperback 11.6042 0.0998729 -2.50371
thorax 8.28647 -0.534147 -2.3362
lowerneck -3.38335 7.04679 0.772398
upperneck -10.0659 8.6908 -5.03087
head -2.34079 4.23611 -1.79514
rclavicle 4.77083e-015 2.3059e-014
rhumerus -43.7272 -1.88208 -94.4795
rradius 48.2191
rwrist -4.59682
rhand -24.0659 22.4243
rfingers 7.12502
rthumb 2.41373 -7.5418
lclavicle 4.77083e-015 2.3059e-014
lhumerus -25.4572 -26.618 88.1207
lradius 79.7075
lwrist 1.37977
lhand -32.9411 -20.4162
lfingers 7.12502
lthumb -6.15736 9.47435
rfemur -48.0082 -4.33105 12.4536
rtibia 68.4886
rfoot -20.85 16.7143
rtoes -24.6153
lfemur 1.64606 -3.4654 -26.8101
ltibia 39.2775
lfoot -31.8225 1.55354
ltoes -17.3707
36
root 29.7506 17.6346 -3.55916 184.309 -11.3934 -178.227
lowerback 7.07245 0.881365 -0.626348
upperback 11.585 -0.270468 -2.33728
thorax 8.2397 -0.710071 -2.2167
lowerneck -3.98202 7.17769 0.647265
upperneck -9.85099 8.86651 -4.99623
head -2.16679 4.31355 -1.72821
rclavicle -3.26007e-014 1.19271e-014
rhumerus -44.8351 -1.62223 -94.052
rradius 48.5539
rwrist -4.12295
rhand -24.1268 22.3366
rfingers 7.12502
rthumb 2.35493 -7.6301
lclavicle -3.26007e-014 1.19271e-014
lhumerus -24.5117 -26.7711 87.6437
lradius 81.9088
lwrist 1.12359
lhand -33.2789 -20.5713
lfingers 7.12502
lthumb -6.48345 9.30943
rfemur -49.2722 -4.47658 12.5164
rtibia 68.1988
rfoot -20.1865 16.7328
rtoes -24.4188
lfemur 2.54605 -3.73965 -26.4599
ltibia 38.3051
lfoot -31.5172 0.937816
ltoes -16.7352
37
root 29.6934 17.6465 -3.71414 184.412 -11.9599 -177.922
lowerback 7.06468 0.611189 -0.493831
upperback 11.5453 -0.617512 -2.16429
thorax 8.18845 -0.87051 -2.10457
lowerneck -4.5486 7.30572 0.713115
upperneck -9.59342 9.0336 -5.07255
head -1.97293 4.38371 -1.72697
rclavicle -1.59028e-015 1.43125e-014
rhumerus -45.9927 -1.54445 -93.5618
rradius 48.8189
rwrist -3.32537
rhand -24.1569 22.3852
rfingers 7.12502
rthumb 2.32583 -7.5819
lclavicle -1.59028e-015 1.43125e-014
lhumerus -23.4442 -27.0134 87.1049
lradius 83.8915
lwrist 0.897061
lhand -33.4552 -20.3493
lfingers 7.12502
lthumb -6.65364 9.52615
rfemur -50.5507 -4.61177 12.6198
rtibia 67.8159
rfoot -19.2541 16.7492
rtoes -23.7718
lfemur 3.3634 -3.9442 -26.0479
ltibia 37.3334
lfoot -31.097 0.263028
ltoes -16.1017
38
root 29.6328 17.6621 -3.87007 184.553 -12.4143 -177.548
lowerback 6.98832 0.379019 -0.263488
upperback 11.4723 -0.901567 -1.99694
thorax 8.14169 -0.987742 -2.0531
lowerneck -4.94941 7.42315 0.824335
upperneck -9.41137 9.18414 -5.15525
head -1.8316 4.44745 -1.74495
rclavicle -3.10104e-014 -2.14687e-014
rhumerus -47.0925 -1.44321 -93.0761
rradius 48.9967
rwrist -2.64363
rhand -24.2334 22.7688
rfingers 7.12502
rthumb 2.25191 -7.19907
lclavicle -3.10104e-014 -2.14687e-014
lhumerus -22.3358 -27.4275 86.4091
lradius 85.6761
lwrist 0.787943
lhand -33.7271 -20.3119
lfingers 7.12502
lthumb -6.9161 9.55514
rfemur -51.8286 -4.67879 12.7942
rtibia 67.3317
rfoot -18.0566 16.8109
rtoes -22.1388
lfemur 4.09564 -4.02601 -25.5578
ltibia 36.3833
lfoot -30.6093 -0.36516
ltoes -15.7273
